<svg xmlns="http://www.w3.org/2000/svg" version="1.1" id="Layer_1" x="0px" y="0px" width="200px" height="37.316px" viewBox="0 0 200 37.316" xml:space="preserve" enable-background="new 0 0 200 37.316"><path d="M159.551 27.591l-0.431 0.731h-1.393v0.911c0 0.413-0.125 0.781-0.39 1.134 -0.504 0.688-1.327 1.023-2.515 1.023 -0.552 0-1.082-0.1-1.573-0.295 -0.095-0.039-0.57-0.239-0.57-0.43 0-0.164 0.215-0.409 0.577-0.655 0.089-0.06 0.435-0.259 1.735-0.81 1.068-0.452 1.827-0.822 2.32-1.136 0.982-0.627 1.479-1.342 1.479-2.128 0-0.94-0.521-1.69-1.457-2.103 -0.575-0.263-1.266-0.396-2.053-0.396 -0.747 0-1.425 0.137-2.013 0.407 -1.271 0.578-1.461 1.544-1.461 2.069 0 0.548 0.18 1.23 0.86 1.854 -0.262 0.13-0.484 0.255-0.67 0.374 -1.102 0.706-1.66 1.556-1.66 2.524 0 0.772 0.345 1.827 1.988 2.475 0.802 0.312 1.674 0.471 2.594 0.471 1.053 0 1.991-0.224 2.807-0.667v0.703h2.352v-5.324h-0.528V27.591zM154.355 25.827c0.272-0.113 0.596-0.171 0.962-0.171 0.367 0 0.69 0.061 0.961 0.177 0.092 0.041 0.143 0.074 0.164 0.08 -0.057 0.088-0.305 0.383-1.231 0.804 -0.656-0.252-1.065-0.547-1.078-0.761C154.134 25.955 154.179 25.9 154.355 25.827z" fill="#616466"/><path d="M12.27 0.184H0V19.9h3.765v-7.627h8.107c2.406 0 4.493-0.332 6.196-0.983 3.348-1.25 4.05-3.407 4.05-4.996C22.118 2.24 18.805 0.184 12.27 0.184zM16.583 8.167c-1.105 0.447-2.477 0.674-4.074 0.674H3.765V3.617h8.718c5.82 0 5.82 2.036 5.82 2.706C18.302 6.816 18.125 7.546 16.583 8.167z" fill="#FFF"/><rect x="24.114" y="0.184" width="3.764" height="19.716" fill="#FFF"/><path d="M37.398 5.033c1.91-1.062 4.348-1.6 7.246-1.6 3.749 0 6.471 0.855 8.093 2.544l0.446 0.464 3.593-1.625 -0.926-0.932C53.289 1.307 49.519 0 44.645 0c-3.635 0-6.747 0.704-9.254 2.097 -3.22 1.82-4.853 4.538-4.853 8.076 0 3.453 1.588 6.1 4.723 7.869 2.414 1.354 5.445 2.042 9.011 2.042 4.686 0 8.475-1.316 11.262-3.913l1.02-0.95 -3.667-1.583 -0.437 0.414c-1.82 1.726-4.58 2.601-8.204 2.601 -2.821 0-5.173-0.536-6.985-1.589 -1.99-1.172-2.958-2.806-2.958-4.996C34.302 7.869 35.317 6.22 37.398 5.033z" fill="#FFF"/><polygon points="78.904 0.184 62.167 9.128 62.167 0.184 58.403 0.184 58.403 19.9 62.167 19.9 62.167 13.116 66.366 10.819 79.728 19.9 85.996 19.9 69.929 8.949 86.37 0.184 " fill="#FFF"/><path d="M97.749 13.91c-0.155 0-0.306 0.052-0.452 0.102 -0.137 0.046-0.277 0.095-0.401 0.095 -0.37 0-0.862-0.257-0.862-2.479 0-0.833 0.061-1.964 0.114-2.96 0.042-0.767 0.079-1.462 0.083-1.907 0.168-0.172 0.262-0.387 0.262-0.602 0-0.318-0.21-0.689-0.801-0.689 -0.997 0-2.367 1.752-4.506 4.639 -0.861 1.161-1.742 2.35-2.51 3.214 0.736-2.77 1.919-5.591 2.979-8.12l0.263-0.651 0.027-0.118c0.021-0.156 0.042-0.311 0.042-0.443 0-0.975-0.622-1.08-0.89-1.08 -1.831 0-2.21 2.513-2.278 3.534l-1.9 7.477c-0.064 0.223-0.077 0.47-0.077 0.637 0 1.034 0.666 1.146 0.953 1.146 1.223 0 2.214-1.503 3.089-2.83 0.178-0.271 0.35-0.532 0.518-0.769 0.936-1.354 1.972-2.729 2.927-3.885 -0.006 0.639-0.006 1.309-0.006 1.998 0 1.576 0 4.855 2.573 4.855 0.234 0 0.521-0.036 0.854-0.108l0.155-0.037c0.215-0.109 0.337-0.292 0.337-0.5C98.241 14.142 98.021 13.91 97.749 13.91zM100.607 2.337c-0.042 0-0.158 0.008-0.348 0.024 -0.165 0.013-0.319 0.021-0.517 0.025 -0.144 0.022-0.245 0.051-0.328 0.093 -0.09 0.048-0.168 0.123-0.252 0.247l-0.123 0.197 -0.61 1.569c-0.207 0.525-0.41 1.051-0.615 1.578l-0.133 0.348 1.059 0.305 2.18-3.294c0.203-0.264 0.291-0.45 0.291-0.622C101.211 2.759 101.193 2.337 100.607 2.337zM105.996 23.916c-2.578 0-3.885 1.579-3.885 4.692s1.278 4.692 3.8 4.692c1.485 0 2.533-0.426 2.577-0.444l0.212-0.088v-1.286l-0.449 0.149c-0.01 0.003-0.977 0.318-2.34 0.318 -1.887 0-2.273-1.335-2.273-3.34 0-2.062 0.396-3.339 2.358-3.339 1.272 0 2.245 0.315 2.255 0.318l0.449 0.147v-1.288l-0.212-0.087C108.444 24.341 107.397 23.916 105.996 23.916zM112.929 23.916c-2.522 0-3.801 1.579-3.801 4.692s1.278 4.692 3.801 4.692c2.521 0 3.799-1.579 3.799-4.692S115.449 23.916 112.929 23.916zM112.929 31.948c-1.888 0-2.274-1.335-2.274-3.34 0-2.005 0.387-3.339 2.274-3.339 1.885 0 2.271 1.334 2.271 3.339C115.199 30.613 114.813 31.948 112.929 31.948zM125.009 24.083h-1.342v4.859c0 1.372-0.395 3.006-2.272 3.006 -1.885 0-2.271-1.335-2.271-3.34v-4.525h-1.342l-0.019 0.322c-0.007 0.12-0.169 2.953-0.169 4.203 0 3.113 1.278 4.692 3.8 4.692 1.195 0 1.912-0.432 2.406-0.98 0.075 0.397 0.131 0.561 0.14 0.586l0.081 0.228h1.092l0.027-0.312c0.002-0.023 0.054-0.605 0.054-2.375 0-2.654-0.168-6.007-0.168-6.041L125.009 24.083zM130.333 23.916c-1.195 0-1.912 0.431-2.405 0.979 -0.074-0.394-0.129-0.557-0.137-0.582l-0.08-0.229h-1.098l-0.027 0.312c-0.002 0.024-0.053 0.606-0.053 2.373 0 2.656 0.169 6.009 0.17 6.042l0.018 0.325h1.342v-4.861c0-1.371 0.395-3.004 2.271-3.004 1.199 0 1.853 0.156 1.858 0.158l0.424 0.103v-1.254l-0.239-0.077C132.341 24.188 131.471 23.916 130.333 23.916zM133.182 24.395c-0.003 0.024-0.053 0.606-0.053 2.373 0 2.656 0.168 6.008 0.169 6.042l0.017 0.325h1.343v-9.051h-1.448L133.182 24.395zM133.977 21.406c-0.522 0-0.931 0.407-0.931 0.927 0 0.52 0.408 0.929 0.931 0.929 0.523 0 0.935-0.409 0.935-0.929C134.911 21.813 134.5 21.406 133.977 21.406zM142.988 26.852c0-0.689-0.25-2.936-3.462-2.936 -3.368 0-3.8 2.508-3.8 4.692 0 3.113 1.279 4.692 3.8 4.692 1.65 0 2.7-0.426 2.745-0.444l0.211-0.087v-1.266l-0.436 0.123c-0.011 0.003-1.155 0.322-2.521 0.322 -1.475 0-2.182-0.815-2.265-2.632 0.582 0.049 1.682 0.137 2.265 0.137C142.539 29.453 142.988 27.823 142.988 26.852zM137.258 28.098c0.048-1.712 0.497-2.83 2.269-2.83 1.746 0 1.935 1.107 1.935 1.583 0 0.827-0.65 1.247-1.935 1.247H137.258zM147.639 23.916c-1.195 0-1.912 0.433-2.406 0.981 -0.076-0.397-0.13-0.561-0.14-0.585l-0.08-0.228h-1.093l-0.027 0.312c-0.003 0.024-0.052 0.606-0.052 2.373 0 2.656 0.166 6.008 0.167 6.041l0.017 0.326h1.342v-4.861c0-1.371 0.395-3.004 2.272-3.004 1.198 0 1.851 0.156 1.856 0.158l0.424 0.103v-1.254l-0.238-0.077C149.644 24.188 148.775 23.916 147.639 23.916zM165.993 23.916c-2.577 0-3.887 1.579-3.887 4.692s1.281 4.692 3.803 4.692c1.482 0 2.531-0.426 2.574-0.444l0.212-0.088v-1.285l-0.449 0.148c-0.011 0.003-0.981 0.318-2.337 0.318 -1.886 0-2.272-1.335-2.272-3.34 0-2.062 0.396-3.339 2.356-3.339 1.272 0 2.242 0.315 2.253 0.318l0.449 0.147v-1.287l-0.212-0.088C168.44 24.342 167.394 23.916 165.993 23.916zM172.554 23.916c-1.465 0-2.657 0.333-2.708 0.347l-0.246 0.071V25.6l0.413-0.087c0.011-0.002 1.163-0.244 2.541-0.244 1.218 0 1.865 0.417 1.932 2.621 -0.476-0.05-1.293-0.125-1.932-0.125 -3.277 0-3.631 1.937-3.631 2.768 0 0.65 0.262 2.769 3.631 2.769 1.912 0 2.962-0.165 3.007-0.171l0.266-0.043 0.02-0.27c0.002-0.024 0.172-2.425 0.172-4.208C176.018 26.854 176.018 23.916 172.554 23.916zM174.49 31.948h-1.937c-1.85 0-2.105-0.681-2.105-1.417 0-0.459 0-1.414 2.105-1.414h1.937V31.948zM181.072 23.916c-1.194 0-1.911 0.433-2.406 0.981 -0.075-0.395-0.13-0.559-0.137-0.584l-0.081-0.229h-1.098l-0.027 0.312c-0.002 0.025-0.051 0.606-0.051 2.373 0 2.656 0.169 6.008 0.169 6.042l0.018 0.325h1.34v-4.861c0-1.371 0.395-3.004 2.273-3.004 1.197 0 1.851 0.156 1.856 0.158l0.424 0.103v-1.254l-0.239-0.077C183.078 24.188 182.209 23.916 181.072 23.916zM190.606 24.125l-0.279-0.039c-0.047-0.007-1.223-0.171-2.913-0.171 -2.578 0-3.884 1.579-3.884 4.692s1.306 4.692 3.884 4.692c0.529 0 1.353-0.099 1.842-0.165 -0.072 2.078-0.502 2.828-2.35 2.828 -0.97 0-1.957-0.161-1.966-0.163l-0.399-0.065v1.256l0.26 0.064c0.043 0.011 1.064 0.261 2.105 0.261 3.704 0 3.884-2.542 3.884-7.035 0-2.49-0.167-5.841-0.169-5.875L190.606 24.125zM189.265 31.882c-0.464 0.025-1.327 0.066-1.851 0.066 -1.63 0-2.356-1.03-2.356-3.34 0-2.309 0.727-3.339 2.356-3.339h1.851V31.882zM195.595 23.916c-2.521 0-3.799 1.579-3.799 4.692s1.277 4.692 3.799 4.692 3.8-1.579 3.8-4.692S198.116 23.916 195.595 23.916zM195.595 31.948c-1.888 0-2.273-1.335-2.273-3.34 0-2.005 0.386-3.339 2.273-3.339 1.887 0 2.272 1.334 2.272 3.339C197.867 30.613 197.481 31.948 195.595 31.948z" fill="#616466"/><polygon points="147.757 16.466 130.84 16.466 130.84 11.375 145.657 11.375 145.657 7.968 130.84 7.968 130.84 3.617 147.572 3.617 147.572 0.184 127.101 0.184 127.101 19.898 147.757 19.898 " fill="#FFF"/><path d="M154.307 5.513l16.355 14.386h3.224V0.184h-3.766v14.318c-1.744-1.538-4.153-3.622-7.3-6.314 -3.782-3.246-6.745-5.858-8.806-7.762l-0.262-0.242h-3.212v19.714h3.766V5.513zM194.875 18.035c3.389-1.691 5.106-4.372 5.106-7.968 0-3.546-1.429-6.198-4.245-7.88 -2.211-1.329-5.188-2.003-8.85-2.003h-10.754v19.714h9.396C189.256 19.898 192.401 19.272 194.875 18.035zM179.898 3.617h6.962c2.921 0 5.206 0.488 6.785 1.448 1.73 1.064 2.572 2.701 2.572 5.003 0 2.301-1.054 3.941-3.221 5.018 -1.832 0.917-4.308 1.381-7.36 1.381h-5.738V3.617zM121.904 9.761c-1.547-0.673-4.473-1.283-8.948-1.863 -2.271-0.287-3.883-0.606-4.788-0.949 -1.41-0.542-1.41-1.162-1.41-1.366 0-1.871 4.262-2.15 6.803-2.15 2.268 0 3.989 0.188 5.111 0.561 1.439 0.48 2.165 1.434 2.28 3l0.062 0.845h3.719l-0.021-0.931C124.611 2.324 120.859 0 113.561 0c-7.029 0-10.593 1.878-10.593 5.583 0 1.448 0.685 3.422 3.95 4.603 1.126 0.411 3.217 0.848 6.397 1.339 3.348 0.517 4.6 0.74 5.062 0.836 1.458 0.301 2.127 0.58 2.416 0.752 0.444 0.275 0.634 0.62 0.634 1.152 0 0.784-0.796 1.403-2.364 1.84 -1.313 0.363-2.923 0.547-4.784 0.547 -4.733 0-6.709-0.945-7.532-1.736l-0.265-0.255h-4.336l0.782 1.365c0.763 1.331 2.115 2.35 4.02 3.028 1.898 0.684 4.347 1.03 7.276 1.03 2.573 0 4.83-0.328 6.708-0.973 2.845-0.981 4.286-2.585 4.286-4.767C125.219 12.887 124.642 10.908 121.904 9.761z" fill="#FFF"/></svg>