<?xml version="1.0" encoding="utf-8"?>
<!-- Generator: Adobe Illustrator 15.0.2, SVG Export Plug-In . SVG Version: 6.00 Build 0)  -->
<!DOCTYPE svg PUBLIC "-//W3C//DTD SVG 1.1//EN" "http://www.w3.org/Graphics/SVG/1.1/DTD/svg11.dtd">
<svg version="1.1" id="Layer_1" xmlns="http://www.w3.org/2000/svg" xmlns:xlink="http://www.w3.org/1999/xlink" x="0px" y="0px"
	 width="512px" height="372.363px" viewBox="0 0 512 372.363" enable-background="new 0 0 512 372.363" xml:space="preserve">
<path d="M442.182,93.091h-69.818V0H46.546C20.83,0,0,20.83,0,46.546v256h46.546c0,38.522,31.301,69.817,69.817,69.817
	c38.518,0,69.818-31.295,69.818-69.817h139.637c0,38.522,31.295,69.817,69.818,69.817c38.522,0,69.817-31.295,69.817-69.817H512
	V186.182L442.182,93.091z M116.363,337.454c-19.317,0-34.909-15.591-34.909-34.908c0-19.318,15.592-34.909,34.909-34.909
	c19.318,0,34.909,15.591,34.909,34.909C151.272,321.863,135.682,337.454,116.363,337.454z M430.546,128l45.727,58.182H372.363V128
	H430.546z M395.637,337.454c-19.318,0-34.909-15.591-34.909-34.908c0-19.318,15.591-34.909,34.909-34.909
	c19.317,0,34.909,15.591,34.909,34.909C430.546,321.863,414.954,337.454,395.637,337.454z"/>
</svg>
