<?xml version="1.0" encoding="utf-8"?>
<!-- Generator: Adobe Illustrator 16.0.0, SVG Export Plug-In . SVG Version: 6.00 Build 0)  -->
<!DOCTYPE svg PUBLIC "-//W3C//DTD SVG 1.1//EN" "http://www.w3.org/Graphics/SVG/1.1/DTD/svg11.dtd">
<svg version="1.1" id="Layer_1" xmlns="http://www.w3.org/2000/svg" xmlns:xlink="http://www.w3.org/1999/xlink" x="0px" y="0px"
	 width="960px" height="200px" viewBox="0 0 960 200" enable-background="new 0 0 960 200" xml:space="preserve">
<g>
	<path fill="#FFFFFF" d="M59.689,65.672L15.606,92.427l43.955,28.029l-3.312,5.224L7.962,94.465v-4.077l48.287-29.94L59.689,65.672z
		"/>
	<path fill="#FFFFFF" d="M75.997,126.699l1.656-6.625c8.409,2.803,14.907,4.204,19.493,4.204s8.132-0.997,10.638-2.994
		c2.504-1.995,3.759-4.65,3.759-7.963s-1-5.753-2.994-7.325c-1.997-1.571-6.137-3.078-12.422-4.523
		c-6.287-1.443-11.001-3.523-14.142-6.243c-3.144-2.548-4.714-6.37-4.714-11.467c0-5.096,1.931-8.982,5.797-11.657
		c3.864-2.676,8.854-4.014,14.97-4.014c6.115,0,12.74,1.36,19.875,4.077l-1.784,5.988c-7.22-2.377-13.039-3.567-17.455-3.567
		c-4.417,0-7.899,0.764-10.447,2.293c-2.548,1.7-3.822,3.994-3.822,6.88c0,2.889,1.125,5.14,3.376,6.753
		c2.25,1.614,6.603,3.229,13.059,4.841c6.454,1.614,11.041,3.675,13.76,6.18c2.717,2.506,4.077,6.434,4.077,11.784
		s-1.828,9.6-5.479,12.741c-3.567,3.143-8.664,4.713-15.289,4.713C91.285,130.775,83.979,129.418,75.997,126.699z"/>
	<path fill="#FFFFFF" d="M140.336,129.629v-6.369h18.601V75.482h-18.601v-6.37h25.354v54.148h18.602v6.369H140.336z M156.262,51.147
		c0-1.698,0.488-3.014,1.465-3.949c0.976-0.934,2.313-1.402,4.014-1.402c3.481,0,5.224,1.87,5.224,5.606
		c0,3.739-1.742,5.564-5.224,5.479C158.087,56.881,156.262,54.97,156.262,51.147z"/>
	<path fill="#FFFFFF" d="M202.001,99.434c0-9.766,2.017-17.391,6.052-22.869c4.033-5.479,9.916-8.218,17.646-8.218
		c7.728,0,13.483,2.548,17.264,7.645c3.778,5.096,5.669,11.893,5.669,20.385l-0.382,6.371h-38.986
		c0.424,6.37,2.122,11.53,5.096,15.479c2.972,3.949,7.071,5.924,12.294,5.924s11.359-1.229,18.41-3.694l1.911,6.37
		c-6.88,2.635-13.336,3.949-19.366,3.949c-8.325,0-14.673-2.781-19.047-8.344C204.187,116.869,202.001,109.203,202.001,99.434z
		 M226.208,74.845c-10.702,0-16.352,7.178-16.945,21.531h32.106C241.369,82.023,236.315,74.845,226.208,74.845z"/>
	<path fill="#FFFFFF" d="M267.487,129.629v-6.369h14.524V75.482h-14.524v-6.37h21.277l0.255,7.39
		c2.717-1.698,6.539-3.396,11.466-5.096c4.925-1.698,9.257-2.717,12.996-3.058h1.401v7.517h-1.401
		c-3.484,0.255-7.794,1.105-12.932,2.548c-5.14,1.445-8.982,2.93-11.53,4.459v40.388h20.385v6.369H267.487z"/>
	<path fill="#FFFFFF" d="M331.19,129.629v-6.369h14.524V75.482H331.19v-6.37h21.277l0.255,7.39
		c2.717-1.698,6.539-3.396,11.466-5.096c4.925-1.698,9.257-2.717,12.996-3.058h1.401v7.517h-1.401
		c-3.484,0.255-7.794,1.105-12.932,2.548c-5.14,1.445-8.982,2.93-11.53,4.459v40.388h20.385v6.369H331.19z"/>
	<path fill="#FFFFFF" d="M412.22,130.775c-6.201,0-11.084-1.592-14.651-4.777c-3.567-3.186-5.351-7.707-5.351-13.568
		s1.953-10.403,5.86-13.632c3.906-3.312,9.088-4.969,15.543-4.969c6.454,0,12.146,0.255,17.072,0.764
		c0-7.559-0.936-12.719-2.803-15.479c-1.869-2.759-5.649-4.141-11.339-4.141c-5.692,0-12.402,1.359-20.13,4.077l-1.911-6.37
		c7.899-2.887,15.034-4.332,21.404-4.332c8.409,0,14.098,1.87,17.072,5.606c2.972,3.739,4.459,10.278,4.459,19.621v26.754
		l1.02,9.684l-6.498,0.637l-1.274-7.645c-1.955,1.701-4.714,3.42-8.281,5.16S415.447,130.775,412.22,130.775z M412.348,124.15
		c3.141,0,6.562-0.996,10.256-2.994c3.694-1.994,6.39-3.842,8.09-5.541v-15.162c-5.605-0.424-10.957-0.637-16.053-0.637
		s-8.918,1.083-11.467,3.249c-2.548,2.166-3.822,5.076-3.822,8.728C399.352,120.032,403.684,124.15,412.348,124.15z"/>
	<path fill="#FFFFFF" d="M455.411,77.138v-6.37h12.358V55.352l6.752-1.274v16.69h29.176v6.37h-29.176v29.049
		c0,6.455,0.956,11.105,2.867,13.95c1.911,2.847,5.329,4.269,10.256,4.269c1.867,0,4.756-0.318,8.664-0.956
		c3.904-0.638,6.58-1.21,8.025-1.72l1.529,6.242c-1.615,0.596-4.566,1.232-8.855,1.912c-4.289,0.678-7.41,1.02-9.363,1.02
		c-7.645,0-12.868-2.018-15.671-6.053c-2.803-4.033-4.204-10.17-4.204-18.41V77.138H455.411z"/>
	<path fill="#FFFFFF" d="M520.515,99.434c0-9.766,2.017-17.391,6.052-22.869c4.033-5.479,9.916-8.218,17.646-8.218
		c7.729,0,13.483,2.548,17.264,7.645c3.778,5.096,5.67,11.893,5.67,20.385l-0.383,6.371h-38.986
		c0.425,6.37,2.122,11.53,5.097,15.479c2.972,3.949,7.071,5.924,12.295,5.924s11.358-1.229,18.41-3.694l1.911,6.37
		c-6.88,2.635-13.336,3.949-19.366,3.949c-8.325,0-14.674-2.781-19.047-8.344C522.7,116.869,520.515,109.203,520.515,99.434z
		 M544.722,74.845c-10.702,0-16.352,7.178-16.945,21.531h32.106C559.883,82.023,554.828,74.845,544.722,74.845z"/>
	<path fill="#FFFFFF" d="M627.663,71.15l-1.529,6.625c-5.267-1.867-10.15-2.803-14.651-2.803c-6.115,0-10.682,2.146-13.696,6.434
		c-3.016,4.29-4.522,10.256-4.522,17.9c0,7.645,1.528,13.696,4.587,18.156c3.058,4.459,7.601,6.688,13.632,6.688
		c4.077,0,9.174-1.102,15.289-3.312l2.038,6.371c-6.201,2.379-11.935,3.566-17.199,3.566c-8.325,0-14.695-2.781-19.111-8.344
		c-4.417-5.562-6.625-13.314-6.625-23.252c0-9.938,2.166-17.56,6.498-22.87c4.331-5.307,10.702-7.963,19.11-7.963
		C616.834,68.347,622.227,69.283,627.663,71.15z"/>
	<path fill="#FFFFFF" d="M656.074,80.196v49.433h-6.753V45.032h6.753v28.666c7.982-3.567,14.565-5.351,19.747-5.351
		c12.146,0,18.22,6.966,18.22,20.895v40.387h-6.753V89.242c0-4.332-0.936-7.792-2.803-10.383c-1.869-2.59-5.097-3.886-9.683-3.886
		C670.216,74.973,663.973,76.714,656.074,80.196z"/>
	<path fill="#FFFFFF" d="M769.975,132.814l52.618-92.878l4.714,2.803l-52.746,92.878L769.975,132.814z"/>
	<path fill="#FFFFFF" d="M880.181,92.427l-44.083-26.755l3.44-5.224l48.286,29.94v4.077l-48.286,31.214l-3.312-5.224L880.181,92.427
		z"/>
</g>
</svg>
